<?xml version="1.0" encoding="UTF-8"?>
<svg xmlns="http://www.w3.org/2000/svg" xmlns:xlink="http://www.w3.org/1999/xlink" width="48px" height="48px" viewBox="0 0 48 48" version="1.1">
<g id="surface1">
<path style=" stroke:none;fill-rule:nonzero;fill:rgb(89.411765%,25.098041%,37.254903%);fill-opacity:1;" d="M 48 24 C 48 10.746094 37.253906 0 24 0 C 10.746094 0 0 10.746094 0 24 C 0 37.253906 10.746094 48 24 48 C 37.253906 48 48 37.253906 48 24 Z M 48 24 "/>
<path style=" stroke:none;fill-rule:nonzero;fill:rgb(100%,100%,100%);fill-opacity:1;" d="M 24 12 C 20.742188 12 20.335938 12.015625 19.054688 12.070312 C 17.773438 12.132812 16.90625 12.332031 16.144531 12.628906 C 15.355469 12.933594 14.6875 13.34375 14.015625 14.011719 C 13.34375 14.675781 12.9375 15.347656 12.632812 16.140625 C 12.335938 16.902344 12.136719 17.773438 12.074219 19.050781 C 12.015625 20.328125 12.003906 20.738281 12.003906 23.996094 C 12.003906 27.253906 12.019531 27.660156 12.074219 28.941406 C 12.136719 30.214844 12.335938 31.085938 12.632812 31.851562 C 12.9375 32.640625 13.351562 33.308594 14.015625 33.980469 C 14.679688 34.644531 15.351562 35.058594 16.144531 35.363281 C 16.90625 35.65625 17.78125 35.859375 19.054688 35.921875 C 20.335938 35.980469 20.742188 35.992188 24 35.992188 C 27.257812 35.992188 27.664062 35.976562 28.945312 35.921875 C 30.21875 35.859375 31.09375 35.65625 31.855469 35.363281 C 32.644531 35.058594 33.3125 34.644531 33.984375 33.980469 C 34.648438 33.3125 35.0625 32.644531 35.367188 31.851562 C 35.664062 31.085938 35.863281 30.214844 35.925781 28.941406 C 35.984375 27.660156 35.996094 27.253906 35.996094 23.996094 C 35.996094 20.738281 35.980469 20.328125 35.925781 19.050781 C 35.863281 17.773438 35.664062 16.902344 35.367188 16.140625 C 35.0625 15.351562 34.648438 14.679688 33.984375 14.011719 C 33.320312 13.34375 32.648438 12.933594 31.855469 12.628906 C 31.09375 12.332031 30.21875 12.132812 28.945312 12.070312 C 27.664062 12.015625 27.257812 12 24 12 Z M 24 14.160156 C 27.203125 14.160156 27.585938 14.175781 28.851562 14.230469 C 30.023438 14.289062 30.65625 14.480469 31.078125 14.648438 C 31.640625 14.863281 32.039062 15.125 32.460938 15.542969 C 32.878906 15.964844 33.140625 16.363281 33.355469 16.925781 C 33.519531 17.347656 33.71875 17.980469 33.769531 19.152344 C 33.824219 20.417969 33.839844 20.796875 33.839844 24.003906 C 33.839844 27.210938 33.824219 27.589844 33.765625 28.855469 C 33.703125 30.027344 33.507812 30.660156 33.34375 31.082031 C 33.117188 31.644531 32.863281 32.042969 32.441406 32.464844 C 32.023438 32.882812 31.617188 33.144531 31.0625 33.359375 C 30.640625 33.523438 30 33.722656 28.828125 33.773438 C 27.554688 33.828125 27.179688 33.84375 23.96875 33.84375 C 20.757812 33.84375 20.382812 33.828125 19.105469 33.769531 C 17.933594 33.707031 17.292969 33.511719 16.871094 33.347656 C 16.304688 33.121094 15.910156 32.867188 15.492188 32.445312 C 15.070312 32.03125 14.804688 31.621094 14.59375 31.070312 C 14.429688 30.648438 14.230469 30.003906 14.171875 28.832031 C 14.125 27.570312 14.109375 27.183594 14.109375 23.992188 C 14.109375 20.792969 14.125 20.40625 14.171875 19.128906 C 14.230469 17.957031 14.421875 17.316406 14.59375 16.894531 C 14.804688 16.320312 15.070312 15.933594 15.492188 15.511719 C 15.910156 15.09375 16.304688 14.820312 16.871094 14.609375 C 17.292969 14.445312 17.921875 14.25 19.09375 14.1875 C 20.367188 14.140625 20.742188 14.128906 23.953125 14.128906 Z M 24 17.835938 C 20.597656 17.835938 17.835938 20.597656 17.835938 24 C 17.835938 27.402344 20.597656 30.164062 24 30.164062 C 27.402344 30.164062 30.164062 27.402344 30.164062 24 C 30.164062 20.597656 27.402344 17.835938 24 17.835938 Z M 24 28 C 21.792969 28 20 26.207031 20 24 C 20 21.792969 21.792969 20 24 20 C 26.207031 20 28 21.792969 28 24 C 28 26.207031 26.207031 28 24 28 Z M 31.847656 17.597656 C 31.847656 18.394531 31.199219 19.035156 30.40625 19.035156 C 29.609375 19.035156 28.96875 18.390625 28.96875 17.597656 C 28.96875 16.804688 29.617188 16.15625 30.40625 16.15625 C 31.199219 16.152344 31.847656 16.800781 31.847656 17.597656 Z M 31.847656 17.597656 "/>
</g>
</svg>
