<?xml version="1.0" encoding="UTF-8"?>
<svg xmlns="http://www.w3.org/2000/svg" xmlns:xlink="http://www.w3.org/1999/xlink" width="48px" height="48px" viewBox="0 0 48 48" version="1.1">
<g id="surface1">
<path style=" stroke:none;fill-rule:nonzero;fill:rgb(0%,46.666667%,70.980394%);fill-opacity:1;" d="M 48 24 C 48 10.746094 37.253906 0 24 0 C 10.746094 0 0 10.746094 0 24 C 0 37.253906 10.746094 48 24 48 C 37.253906 48 48 37.253906 48 24 Z M 48 24 "/>
<path style=" stroke:none;fill-rule:evenodd;fill:rgb(100%,100%,100%);fill-opacity:1;" d="M 17.730469 12.339844 C 17.730469 13.835938 16.59375 15.042969 14.8125 15.042969 C 13.101562 15.042969 11.964844 13.835938 12 12.339844 C 11.964844 10.773438 13.101562 9.601562 14.847656 9.601562 C 16.59375 9.601562 17.695312 10.773438 17.730469 12.339844 Z M 12.144531 34.582031 L 12.144531 17.179688 L 17.550781 17.179688 L 17.550781 34.582031 Z M 12.144531 34.582031 "/>
<path style=" stroke:none;fill-rule:evenodd;fill:rgb(100%,100%,100%);fill-opacity:1;" d="M 21.886719 22.734375 C 21.886719 20.5625 21.816406 18.710938 21.742188 17.183594 L 26.441406 17.183594 L 26.691406 19.566406 L 26.796875 19.566406 C 27.511719 18.460938 29.289062 16.792969 32.171875 16.792969 C 35.730469 16.792969 38.398438 19.140625 38.398438 24.261719 L 38.398438 34.585938 L 32.992188 34.585938 L 32.992188 24.941406 C 32.992188 22.699219 32.207031 21.167969 30.25 21.167969 C 28.757812 21.167969 27.867188 22.199219 27.511719 23.195312 C 27.367188 23.550781 27.296875 24.050781 27.296875 24.550781 L 27.296875 34.585938 L 21.890625 34.585938 L 21.890625 22.734375 Z M 21.886719 22.734375 "/>
</g>
</svg>
