<?xml version="1.0" encoding="UTF-8"?>
<svg xmlns="http://www.w3.org/2000/svg" xmlns:xlink="http://www.w3.org/1999/xlink" width="48px" height="48px" viewBox="0 0 48 48" version="1.1">
<g id="surface1">
<path style=" stroke:none;fill-rule:nonzero;fill:rgb(1.176471%,66.274512%,95.686275%);fill-opacity:1;" d="M 24 0 C 10.746094 0 0 10.746094 0 24 C 0 37.253906 10.746094 48 24 48 C 37.253906 48 48 37.253906 48 24 C 48 10.746094 37.253906 0 24 0 Z M 27.480469 16.222656 L 36.660156 16.222656 C 36.738281 16.222656 36.691406 16.214844 36.765625 16.230469 L 27.480469 24.101562 Z M 25.703125 35.902344 C 25.703125 36.703125 25.007812 37.300781 24.222656 37.128906 L 10.929688 34.21875 C 10.351562 34.089844 9.925781 33.578125 9.925781 32.988281 L 9.925781 14.375 C 9.925781 13.761719 10.394531 13.234375 11 13.132812 L 24.257812 10.859375 C 25.027344 10.726562 25.703125 11.320312 25.703125 12.097656 Z M 37.925781 18.566406 L 37.925781 30.515625 C 37.925781 31.335938 37.476562 31.777344 36.660156 31.777344 L 27.480469 31.777344 L 27.480469 26.917969 C 27.480469 26.898438 37.855469 17.949219 37.855469 17.949219 C 37.941406 18.136719 37.925781 18.347656 37.925781 18.566406 Z M 19.894531 18.574219 C 18.234375 17.707031 16.308594 17.957031 14.855469 19.078125 C 13.457031 20.160156 12.585938 22.105469 12.585938 24 C 12.585938 25.894531 13.457031 27.839844 14.855469 28.921875 C 15.5 29.417969 16.230469 29.742188 16.996094 29.875 C 17.957031 30.046875 18.972656 29.910156 19.894531 29.425781 C 21.660156 28.503906 22.753906 26.5 22.753906 24 C 22.753906 21.5 21.660156 19.496094 19.894531 18.574219 Z M 18.542969 26.875 C 17.699219 27.429688 16.542969 27.40625 15.675781 26.84375 C 14.726562 26.234375 14.242188 24.953125 14.242188 24 C 14.242188 23.046875 14.726562 21.769531 15.675781 21.15625 C 16.074219 20.898438 16.527344 20.753906 16.988281 20.726562 C 17.535156 20.695312 18.085938 20.824219 18.546875 21.125 C 19.347656 21.652344 19.761719 22.625 19.761719 24 C 19.761719 25.375 19.347656 26.347656 18.542969 26.875 Z M 18.542969 26.875 "/>
</g>
</svg>
