<?xml version="1.0" encoding="UTF-8"?>
<svg xmlns="http://www.w3.org/2000/svg" xmlns:xlink="http://www.w3.org/1999/xlink" width="48px" height="48px" viewBox="0 0 48 48" version="1.1">
<g id="surface1">
<path style=" stroke:none;fill-rule:nonzero;fill:rgb(11.372549%,63.137257%,94.901961%);fill-opacity:1;" d="M 48 24 C 48 10.746094 37.253906 0 24 0 C 10.746094 0 0 10.746094 0 24 C 0 37.253906 10.746094 48 24 48 C 37.253906 48 48 37.253906 48 24 Z M 48 24 "/>
<path style=" stroke:none;fill-rule:evenodd;fill:rgb(100%,100%,100%);fill-opacity:1;" d="M 38.398438 14.769531 C 37.339844 15.242188 36.203125 15.558594 35.007812 15.699219 C 36.226562 14.96875 37.164062 13.8125 37.605469 12.433594 C 36.464844 13.109375 35.199219 13.601562 33.851562 13.867188 C 32.773438 12.71875 31.238281 12 29.539062 12 C 26.277344 12 23.632812 14.644531 23.632812 17.910156 C 23.632812 18.371094 23.683594 18.820312 23.785156 19.253906 C 18.875 19.007812 14.519531 16.65625 11.605469 13.082031 C 11.097656 13.953125 10.804688 14.96875 10.804688 16.050781 C 10.804688 18.101562 11.847656 19.910156 13.433594 20.96875 C 12.464844 20.9375 11.554688 20.671875 10.757812 20.230469 L 10.757812 20.304688 C 10.757812 23.167969 12.796875 25.554688 15.496094 26.097656 C 15 26.234375 14.480469 26.308594 13.941406 26.308594 C 13.558594 26.308594 13.1875 26.269531 12.828125 26.199219 C 13.578125 28.546875 15.761719 30.257812 18.347656 30.304688 C 16.328125 31.886719 13.777344 32.832031 11.011719 32.832031 C 10.53125 32.832031 10.0625 32.804688 9.601562 32.75 C 12.214844 34.425781 15.320312 35.40625 18.65625 35.40625 C 29.523438 35.40625 35.46875 26.402344 35.46875 18.59375 C 35.46875 18.339844 35.460938 18.082031 35.449219 17.832031 C 36.605469 16.996094 37.609375 15.953125 38.398438 14.769531 Z M 38.398438 14.769531 "/>
</g>
</svg>
